<?xml version="1.0" encoding="UTF-8" standalone="no"?>
<!DOCTYPE svg PUBLIC "-//W3C//DTD SVG 1.1//EN"
 "http://www.w3.org/Graphics/SVG/1.1/DTD/svg11.dtd">
<!-- Generated by graphviz version 2.40.1 (20161225.0304)
 -->
<!-- Title: G Pages: 1 -->
<svg width="720pt" height="328pt"
 viewBox="0.00 0.00 720.00 327.56" xmlns="http://www.w3.org/2000/svg" xmlns:xlink="http://www.w3.org/1999/xlink">
<g id="graph0" class="graph" transform="scale(.9413 .9413) rotate(0) translate(4 343.9869)">
<title>G</title>
<polygon fill="#ffffff" stroke="transparent" points="-4,4 -4,-343.9869 760.8963,-343.9869 760.8963,4 -4,4"/>
<!-- S0 -->
<g id="node1" class="node">
<title>S0</title>
<ellipse fill="none" stroke="#000000" cx="62.5391" cy="-289.4745" rx="50.5248" ry="50.5248"/>
<text text-anchor="middle" x="62.5391" y="-286.6745" font-family="monospace" font-size="11.00" fill="#000000">S0 (start)</text>
</g>
<!-- S1 -->
<g id="node2" class="node">
<title>S1</title>
<ellipse fill="none" stroke="#000000" cx="62.5391" cy="-90.4745" rx="62.5783" ry="62.5783"/>
<text text-anchor="middle" x="62.5391" y="-87.6745" font-family="monospace" font-size="11.00" fill="#000000">S1 (generate)</text>
</g>
<!-- S0&#45;&gt;S1 -->
<g id="edge1" class="edge">
<title>S0&#45;&gt;S1</title>
<path fill="none" stroke="#c0c0c0" d="M62.5391,-238.7365C62.5391,-215.8495 62.5391,-188.39 62.5391,-163.3568"/>
<polygon fill="#c0c0c0" stroke="#c0c0c0" points="66.0392,-163.1662 62.5391,-153.1662 59.0392,-163.1662 66.0392,-163.1662"/>
<text text-anchor="middle" x="53.5391" y="-193.1879" font-family="monospace" font-size="11.00" fill="#000000">h &#45; h_min &gt; 0.0</text>
</g>
<!-- S2 -->
<g id="node3" class="node">
<title>S2</title>
<ellipse fill="none" stroke="#000000" cx="302.3813" cy="-90.4745" rx="46.1069" ry="46.1069"/>
<text text-anchor="middle" x="302.3813" y="-87.6745" font-family="monospace" font-size="11.00" fill="#000000">S2 (hold)</text>
</g>
<!-- S1&#45;&gt;S2 -->
<g id="edge2" class="edge">
<title>S1&#45;&gt;S2</title>
<path fill="none" stroke="#c0c0c0" d="M125.2416,-90.4745C162.5075,-90.4745 209.4022,-90.4745 245.5787,-90.4745"/>
<polygon fill="#c0c0c0" stroke="#c0c0c0" points="245.9591,-93.9746 255.9591,-90.4745 245.959,-86.9746 245.9591,-93.9746"/>
<text text-anchor="middle" x="190.5783" y="-93.6745" font-family="monospace" font-size="11.00" fill="#000000">n11 &gt;= n11_max</text>
</g>
<!-- S3 -->
<g id="node4" class="node">
<title>S3</title>
<ellipse fill="none" stroke="#000000" cx="532.9873" cy="-90.4745" rx="46.1069" ry="46.1069"/>
<text text-anchor="middle" x="532.9873" y="-87.6745" font-family="monospace" font-size="11.00" fill="#000000">S3 (fill)</text>
</g>
<!-- S2&#45;&gt;S3 -->
<g id="edge3" class="edge">
<title>S2&#45;&gt;S3</title>
<path fill="none" stroke="#c0c0c0" d="M348.7704,-90.4745C385.5948,-90.4745 437.2318,-90.4745 476.4696,-90.4745"/>
<polygon fill="#c0c0c0" stroke="#c0c0c0" points="476.6723,-93.9746 486.6723,-90.4745 476.6722,-86.9746 476.6723,-93.9746"/>
<text text-anchor="middle" x="417.6843" y="-93.6745" font-family="monospace" font-size="11.00" fill="#000000">h &lt;= 0</text>
</g>
<!-- S4 -->
<g id="node5" class="node">
<title>S4</title>
<ellipse fill="none" stroke="#000000" cx="706.5933" cy="-90.4745" rx="46.1224" ry="46.1224"/>
<ellipse fill="none" stroke="#000000" cx="706.5933" cy="-90.4745" rx="50.1068" ry="50.1068"/>
<text text-anchor="middle" x="706.5933" y="-87.6745" font-family="monospace" font-size="11.00" fill="#000000">S4 (hold)</text>
</g>
<!-- S3&#45;&gt;S4 -->
<g id="edge4" class="edge">
<title>S3&#45;&gt;S4</title>
<path fill="none" stroke="#c0c0c0" d="M579.5105,-90.4745C599.9732,-90.4745 624.2731,-90.4745 646.1164,-90.4745"/>
<polygon fill="#c0c0c0" stroke="#c0c0c0" points="646.2846,-93.9746 656.2846,-90.4745 646.2845,-86.9746 646.2846,-93.9746"/>
<text text-anchor="middle" x="617.7903" y="-93.6745" font-family="monospace" font-size="11.00" fill="#000000">h &gt;= 0</text>
</g>
<!-- S4&#45;&gt;S1 -->
<g id="edge5" class="edge">
<title>S4&#45;&gt;S1</title>
<path fill="none" stroke="#c0c0c0" d="M665.1432,-61.6091C641.2341,-46.7342 609.9166,-30.1415 579.2903,-22.4745 439.9407,12.4104 397.683,1.6782 256.0783,-22.4745 212.5715,-29.8952 165.833,-46.0664 129.187,-60.7772"/>
<polygon fill="#c0c0c0" stroke="#c0c0c0" points="127.5535,-57.6633 119.614,-64.6787 130.1955,-64.1457 127.5535,-57.6633"/>
<text text-anchor="middle" x="417.6843" y="-7.6745" font-family="monospace" font-size="11.00" fill="#000000">h &#45; h_min &gt; 0.0</text>
</g>
</g>
</svg>
