<?xml version="1.0" encoding="UTF-8" standalone="no"?>
<!DOCTYPE svg PUBLIC "-//W3C//DTD SVG 1.1//EN"
 "http://www.w3.org/Graphics/SVG/1.1/DTD/svg11.dtd">
<!-- Generated by graphviz version 2.40.1 (20161225.0304)
 -->
<!-- Title: G Pages: 1 -->
<svg width="720pt" height="302pt"
 viewBox="0.00 0.00 720.00 302.35" xmlns="http://www.w3.org/2000/svg" xmlns:xlink="http://www.w3.org/1999/xlink">
<g id="graph0" class="graph" transform="scale(.9946 .9946) rotate(0) translate(4 299.9833)">
<title>G</title>
<polygon fill="#ffffff" stroke="transparent" points="-4,4 -4,-299.9833 719.8963,-299.9833 719.8963,4 -4,4"/>
<!-- S0 -->
<g id="node1" class="node">
<title>S0</title>
<ellipse fill="none" stroke="#000000" cx="62.5391" cy="-265.9164" rx="30.1339" ry="30.1339"/>
<text text-anchor="middle" x="62.5391" y="-263.1164" font-family="monospace" font-size="11.00" fill="#000000">start</text>
</g>
<!-- S1 -->
<g id="node2" class="node">
<title>S1</title>
<ellipse fill="none" stroke="#000000" cx="62.5391" cy="-87.9164" rx="62.5783" ry="62.5783"/>
<text text-anchor="middle" x="62.5391" y="-85.1164" font-family="monospace" font-size="11.00" fill="#000000">S1 (generate)</text>
</g>
<!-- S0&#45;&gt;S1 -->
<g id="edge1" class="edge">
<title>S0&#45;&gt;S1</title>
<path fill="none" stroke="#c0c0c0" d="M62.5391,-235.5951C62.5391,-215.0826 62.5391,-187.0687 62.5391,-160.9511"/>
<polygon fill="#c0c0c0" stroke="#c0c0c0" points="66.0392,-160.6725 62.5391,-150.6726 59.0392,-160.6726 66.0392,-160.6725"/>
<text text-anchor="middle" x="53.5391" y="-190.3525" font-family="monospace" font-size="11.00" fill="#000000">h &gt; h_min</text>
</g>
<!-- S2 -->
<g id="node3" class="node">
<title>S2</title>
<ellipse fill="none" stroke="#000000" cx="302.3813" cy="-87.9164" rx="46.1069" ry="46.1069"/>
<text text-anchor="middle" x="302.3813" y="-85.1164" font-family="monospace" font-size="11.00" fill="#000000">S2 (hold)</text>
</g>
<!-- S1&#45;&gt;S2 -->
<g id="edge2" class="edge">
<title>S1&#45;&gt;S2</title>
<path fill="none" stroke="#c0c0c0" d="M125.2416,-87.9164C162.5075,-87.9164 209.4022,-87.9164 245.5787,-87.9164"/>
<polygon fill="#c0c0c0" stroke="#c0c0c0" points="245.9591,-91.4165 255.9591,-87.9164 245.959,-84.4165 245.9591,-91.4165"/>
<text text-anchor="middle" x="190.5783" y="-91.1164" font-family="monospace" font-size="11.00" fill="#000000">n11 &gt;= n11_max</text>
</g>
<!-- S3 -->
<g id="node4" class="node">
<title>S3</title>
<ellipse fill="none" stroke="#000000" cx="491.9873" cy="-87.9164" rx="46.1069" ry="46.1069"/>
<text text-anchor="middle" x="491.9873" y="-85.1164" font-family="monospace" font-size="11.00" fill="#000000">S3 (fill)</text>
</g>
<!-- S2&#45;&gt;S3 -->
<g id="edge3" class="edge">
<title>S2&#45;&gt;S3</title>
<path fill="none" stroke="#c0c0c0" d="M348.7641,-87.9164C374.8176,-87.9164 407.5403,-87.9164 435.1286,-87.9164"/>
<polygon fill="#c0c0c0" stroke="#c0c0c0" points="435.4262,-91.4165 445.4261,-87.9164 435.4261,-84.4165 435.4262,-91.4165"/>
<text text-anchor="middle" x="397.1843" y="-91.1164" font-family="monospace" font-size="11.00" fill="#000000">h &lt;= 0</text>
</g>
<!-- S4 -->
<g id="node5" class="node">
<title>S4</title>
<ellipse fill="none" stroke="#000000" cx="665.5933" cy="-87.9164" rx="46.1224" ry="46.1224"/>
<ellipse fill="none" stroke="#000000" cx="665.5933" cy="-87.9164" rx="50.1068" ry="50.1068"/>
<text text-anchor="middle" x="665.5933" y="-85.1164" font-family="monospace" font-size="11.00" fill="#000000">S4 (hold)</text>
</g>
<!-- S3&#45;&gt;S4 -->
<g id="edge4" class="edge">
<title>S3&#45;&gt;S4</title>
<path fill="none" stroke="#c0c0c0" d="M538.5105,-87.9164C558.9732,-87.9164 583.2731,-87.9164 605.1164,-87.9164"/>
<polygon fill="#c0c0c0" stroke="#c0c0c0" points="605.2846,-91.4165 615.2846,-87.9164 605.2845,-84.4165 605.2846,-91.4165"/>
<text text-anchor="middle" x="576.7903" y="-91.1164" font-family="monospace" font-size="11.00" fill="#000000">h &gt;= 0</text>
</g>
<!-- S4&#45;&gt;S1 -->
<g id="edge5" class="edge">
<title>S4&#45;&gt;S1</title>
<path fill="none" stroke="#c0c0c0" d="M624.1432,-59.051C600.2341,-44.1761 568.9166,-27.5834 538.2903,-19.9164 416.6175,10.5433 379.7202,1.1725 256.0783,-19.9164 212.5715,-27.3371 165.833,-43.5083 129.187,-58.2191"/>
<polygon fill="#c0c0c0" stroke="#c0c0c0" points="127.5535,-55.1052 119.614,-62.1206 130.1955,-61.5876 127.5535,-55.1052"/>
<text text-anchor="middle" x="397.1843" y="-6.1164" font-family="monospace" font-size="11.00" fill="#000000">h &gt; h_min</text>
</g>
</g>
</svg>
