<?xml version="1.0" encoding="UTF-8" standalone="no"?>
<!DOCTYPE svg PUBLIC "-//W3C//DTD SVG 1.1//EN"
 "http://www.w3.org/Graphics/SVG/1.1/DTD/svg11.dtd">
<!-- Generated by graphviz version 2.40.1 (20161225.0304)
 -->
<!-- Title: G Pages: 1 -->
<svg width="708pt" height="92pt"
 viewBox="0.00 0.00 708.00 91.70" xmlns="http://www.w3.org/2000/svg" xmlns:xlink="http://www.w3.org/1999/xlink">
<g id="graph0" class="graph" transform="scale(1 1) rotate(0) translate(4 87.7022)">
<title>G</title>
<polygon fill="#ffffff" stroke="transparent" points="-4,4 -4,-87.7022 704,-87.7022 704,4 -4,4"/>
<!-- S0 -->
<g id="node1" class="node">
<title>S0</title>
<ellipse fill="none" stroke="#000000" cx="29" cy="-50.7022" rx="29" ry="29"/>
<text text-anchor="middle" x="29" y="-54.1022" font-family="arial" font-size="12.00" fill="#000000">S0</text>
<text text-anchor="middle" x="29" y="-41.1022" font-family="arial" font-size="12.00" fill="#000000">hold</text>
</g>
<!-- S1 -->
<g id="node2" class="node">
<title>S1</title>
<ellipse fill="none" stroke="#000000" cx="201" cy="-50.7022" rx="29" ry="29"/>
<text text-anchor="middle" x="201" y="-54.1022" font-family="arial" font-size="12.00" fill="#000000">S1</text>
<text text-anchor="middle" x="201" y="-41.1022" font-family="arial" font-size="12.00" fill="#000000">generate</text>
</g>
<!-- S0&#45;&gt;S1 -->
<g id="edge1" class="edge">
<title>S0&#45;&gt;S1</title>
<path fill="none" stroke="#c0c0c0" d="M58.1775,-50.7022C86.6799,-50.7022 130.2549,-50.7022 161.7778,-50.7022"/>
<polygon fill="#c0c0c0" stroke="#c0c0c0" points="161.967,-54.2023 171.9669,-50.7022 161.9669,-47.2023 161.967,-54.2023"/>
<text text-anchor="middle" x="115" y="-53.9022" font-family="arial" font-size="11.00" fill="#000000">h &#45; h_start &gt; 0.0</text>
</g>
<!-- S2 -->
<g id="node3" class="node">
<title>S2</title>
<ellipse fill="none" stroke="#000000" cx="372" cy="-50.7022" rx="29" ry="29"/>
<text text-anchor="middle" x="372" y="-54.1022" font-family="arial" font-size="12.00" fill="#000000">S2</text>
<text text-anchor="middle" x="372" y="-41.1022" font-family="arial" font-size="12.00" fill="#000000">hold</text>
</g>
<!-- S1&#45;&gt;S2 -->
<g id="edge2" class="edge">
<title>S1&#45;&gt;S2</title>
<path fill="none" stroke="#c0c0c0" d="M230.0078,-50.7022C258.259,-50.7022 301.4046,-50.7022 332.7214,-50.7022"/>
<polygon fill="#c0c0c0" stroke="#c0c0c0" points="332.8499,-54.2023 342.8499,-50.7022 332.8498,-47.2023 332.8499,-54.2023"/>
<text text-anchor="middle" x="286.5" y="-53.9022" font-family="arial" font-size="11.00" fill="#000000">n11 &gt; n11_max</text>
</g>
<!-- S3 -->
<g id="node4" class="node">
<title>S3</title>
<ellipse fill="none" stroke="#000000" cx="544" cy="-50.7022" rx="29" ry="29"/>
<text text-anchor="middle" x="544" y="-54.1022" font-family="arial" font-size="12.00" fill="#000000">S3</text>
<text text-anchor="middle" x="544" y="-41.1022" font-family="arial" font-size="12.00" fill="#000000">fill</text>
</g>
<!-- S2&#45;&gt;S3 -->
<g id="edge3" class="edge">
<title>S2&#45;&gt;S3</title>
<path fill="none" stroke="#c0c0c0" d="M401.1775,-50.7022C429.6799,-50.7022 473.2549,-50.7022 504.7778,-50.7022"/>
<polygon fill="#c0c0c0" stroke="#c0c0c0" points="504.967,-54.2023 514.9669,-50.7022 504.9669,-47.2023 504.967,-54.2023"/>
<text text-anchor="middle" x="458" y="-53.9022" font-family="arial" font-size="11.00" fill="#000000">h &lt; 0</text>
</g>
<!-- S4 -->
<g id="node5" class="node">
<title>S4</title>
<ellipse fill="none" stroke="#000000" cx="667" cy="-50.7022" rx="29" ry="29"/>
<ellipse fill="none" stroke="#000000" cx="667" cy="-50.7022" rx="33" ry="33"/>
<text text-anchor="middle" x="667" y="-54.1022" font-family="arial" font-size="12.00" fill="#000000">S4</text>
<text text-anchor="middle" x="667" y="-41.1022" font-family="arial" font-size="12.00" fill="#000000">hold</text>
</g>
<!-- S3&#45;&gt;S4 -->
<g id="edge4" class="edge">
<title>S3&#45;&gt;S4</title>
<path fill="none" stroke="#c0c0c0" d="M573.1493,-50.7022C588.2099,-50.7022 606.8889,-50.7022 623.6078,-50.7022"/>
<polygon fill="#c0c0c0" stroke="#c0c0c0" points="623.7145,-54.2023 633.7144,-50.7022 623.7144,-47.2023 623.7145,-54.2023"/>
<text text-anchor="middle" x="603.5" y="-53.9022" font-family="arial" font-size="11.00" fill="#000000">h &gt; 0</text>
</g>
<!-- S4&#45;&gt;S1 -->
<g id="edge5" class="edge">
<title>S4&#45;&gt;S1</title>
<path fill="none" stroke="#c0c0c0" d="M637.4259,-35.3223C619.3515,-26.8017 595.4624,-17.0708 573,-12.7022 472.6578,6.8126 444.3498,.6242 343,-12.7022 306.8313,-17.458 266.7805,-28.7507 238.4598,-37.7973"/>
<polygon fill="#c0c0c0" stroke="#c0c0c0" points="237.0106,-34.5883 228.5856,-41.0124 239.1779,-41.2443 237.0106,-34.5883"/>
<text text-anchor="middle" x="458" y="-5.9022" font-family="arial" font-size="11.00" fill="#000000">h &#45; h_start &gt; 0.0</text>
</g>
</g>
</svg>
