<?xml version="1.0" encoding="UTF-8" standalone="no"?>
<!DOCTYPE svg PUBLIC "-//W3C//DTD SVG 1.1//EN"
 "http://www.w3.org/Graphics/SVG/1.1/DTD/svg11.dtd">
<!-- Generated by graphviz version 2.40.1 (20161225.0304)
 -->
<!-- Title: G Pages: 1 -->
<svg width="1008pt" height="154pt"
 viewBox="0.00 0.00 1007.50 153.74" xmlns="http://www.w3.org/2000/svg" xmlns:xlink="http://www.w3.org/1999/xlink">
<g id="graph0" class="graph" transform="scale(1 1) rotate(0) translate(4 149.7357)">
<title>G</title>
<polygon fill="#ffffff" stroke="transparent" points="-4,4 -4,-149.7357 1003.5023,-149.7357 1003.5023,4 -4,4"/>
<!-- S0 -->
<g id="node1" class="node">
<title>S0</title>
<ellipse fill="none" stroke="#000000" cx="46.303" cy="-83.1966" rx="46.1069" ry="46.1069"/>
<text text-anchor="middle" x="46.303" y="-80.3966" font-family="monospace" font-size="11.00" fill="#000000">S0 (hold)</text>
</g>
<!-- S1 -->
<g id="node2" class="node">
<title>S1</title>
<ellipse fill="none" stroke="#000000" cx="306.1452" cy="-83.1966" rx="62.5783" ry="62.5783"/>
<text text-anchor="middle" x="306.1452" y="-80.3966" font-family="monospace" font-size="11.00" fill="#000000">S1 (generate)</text>
</g>
<!-- S0&#45;&gt;S1 -->
<g id="edge1" class="edge">
<title>S0&#45;&gt;S1</title>
<path fill="none" stroke="#c0c0c0" d="M92.7576,-83.1966C131.8427,-83.1966 188.4051,-83.1966 233.4765,-83.1966"/>
<polygon fill="#c0c0c0" stroke="#c0c0c0" points="233.4931,-86.6967 243.4931,-83.1966 233.493,-79.6967 233.4931,-86.6967"/>
<text text-anchor="middle" x="168.106" y="-86.3966" font-family="monospace" font-size="11.00" fill="#000000">h &#45; h_start &gt; 0.0</text>
</g>
<!-- S2 -->
<g id="node3" class="node">
<title>S2</title>
<ellipse fill="none" stroke="#000000" cx="538.9873" cy="-83.1966" rx="46.1069" ry="46.1069"/>
<text text-anchor="middle" x="538.9873" y="-80.3966" font-family="monospace" font-size="11.00" fill="#000000">S2 (hold)</text>
</g>
<!-- S1&#45;&gt;S2 -->
<g id="edge2" class="edge">
<title>S1&#45;&gt;S2</title>
<path fill="none" stroke="#c0c0c0" d="M368.8489,-83.1966C404.1266,-83.1966 447.8326,-83.1966 482.1131,-83.1966"/>
<polygon fill="#c0c0c0" stroke="#c0c0c0" points="482.4295,-86.6967 492.4295,-83.1966 482.4294,-79.6967 482.4295,-86.6967"/>
<text text-anchor="middle" x="430.6843" y="-86.3966" font-family="monospace" font-size="11.00" fill="#000000">n11 &gt; n11_max</text>
</g>
<!-- S3 -->
<g id="node4" class="node">
<title>S3</title>
<ellipse fill="none" stroke="#000000" cx="782.5933" cy="-83.1966" rx="46.1069" ry="46.1069"/>
<text text-anchor="middle" x="782.5933" y="-80.3966" font-family="monospace" font-size="11.00" fill="#000000">S3 (fill)</text>
</g>
<!-- S2&#45;&gt;S3 -->
<g id="edge3" class="edge">
<title>S2&#45;&gt;S3</title>
<path fill="none" stroke="#c0c0c0" d="M585.3811,-83.1966C625.2985,-83.1966 683.0303,-83.1966 725.7228,-83.1966"/>
<polygon fill="#c0c0c0" stroke="#c0c0c0" points="725.958,-86.6967 735.958,-83.1966 725.9579,-79.6967 725.958,-86.6967"/>
<text text-anchor="middle" x="660.7903" y="-86.3966" font-family="monospace" font-size="11.00" fill="#000000">h &lt; 0</text>
</g>
<!-- S4 -->
<g id="node5" class="node">
<title>S4</title>
<ellipse fill="none" stroke="#000000" cx="949.1993" cy="-83.1966" rx="46.1224" ry="46.1224"/>
<ellipse fill="none" stroke="#000000" cx="949.1993" cy="-83.1966" rx="50.1068" ry="50.1068"/>
<text text-anchor="middle" x="949.1993" y="-80.3966" font-family="monospace" font-size="11.00" fill="#000000">S4 (hold)</text>
</g>
<!-- S3&#45;&gt;S4 -->
<g id="edge4" class="edge">
<title>S3&#45;&gt;S4</title>
<path fill="none" stroke="#c0c0c0" d="M829.0024,-83.1966C847.4505,-83.1966 868.9239,-83.1966 888.5748,-83.1966"/>
<polygon fill="#c0c0c0" stroke="#c0c0c0" points="888.6591,-86.6967 898.6591,-83.1966 888.6591,-79.6967 888.6591,-86.6967"/>
<text text-anchor="middle" x="863.8963" y="-86.3966" font-family="monospace" font-size="11.00" fill="#000000">h &gt; 0</text>
</g>
<!-- S4&#45;&gt;S1 -->
<g id="edge5" class="edge">
<title>S4&#45;&gt;S1</title>
<path fill="none" stroke="#c0c0c0" d="M906.8335,-55.5328C884.6037,-42.6566 856.3411,-28.757 828.8963,-22.1966 683.5632,12.5438 640.25,1.3184 492.6843,-22.1966 452.2393,-28.6416 408.6506,-42.4822 373.7867,-55.3527"/>
<polygon fill="#c0c0c0" stroke="#c0c0c0" points="372.3286,-52.1615 364.1945,-58.9502 374.7868,-58.7157 372.3286,-52.1615"/>
<text text-anchor="middle" x="660.7903" y="-7.3966" font-family="monospace" font-size="11.00" fill="#000000">h &#45; h_start &gt; 0.0</text>
</g>
</g>
</svg>
