<?xml version="1.0" encoding="UTF-8" standalone="no"?>
<!DOCTYPE svg PUBLIC "-//W3C//DTD SVG 1.1//EN"
 "http://www.w3.org/Graphics/SVG/1.1/DTD/svg11.dtd">
<!-- Generated by graphviz version 2.40.1 (20161225.0304)
 -->
<!-- Title: G Pages: 1 -->
<svg width="270pt" height="364pt"
 viewBox="0.00 0.00 269.50 364.00" xmlns="http://www.w3.org/2000/svg" xmlns:xlink="http://www.w3.org/1999/xlink">
<g id="graph0" class="graph" transform="scale(1 1) rotate(0) translate(4 360)">
<title>G</title>
<polygon fill="#ffffff" stroke="transparent" points="-4,4 -4,-360 265.5,-360 265.5,4 -4,4"/>
<!-- S0 -->
<g id="node1" class="node">
<title>S0</title>
<path fill="none" stroke="#000000" d="M233,-356C233,-356 166,-356 166,-356 160,-356 154,-350 154,-344 154,-344 154,-332 154,-332 154,-326 160,-320 166,-320 166,-320 233,-320 233,-320 239,-320 245,-326 245,-332 245,-332 245,-344 245,-344 245,-350 239,-356 233,-356"/>
<text text-anchor="middle" x="199.5" y="-334.3" font-family="monospace" font-size="14.00" fill="#000000">S0 (hold)</text>
</g>
<!-- S1 -->
<g id="node2" class="node">
<title>S1</title>
<path fill="none" stroke="#000000" d="M249.5,-276C249.5,-276 149.5,-276 149.5,-276 143.5,-276 137.5,-270 137.5,-264 137.5,-264 137.5,-252 137.5,-252 137.5,-246 143.5,-240 149.5,-240 149.5,-240 249.5,-240 249.5,-240 255.5,-240 261.5,-246 261.5,-252 261.5,-252 261.5,-264 261.5,-264 261.5,-270 255.5,-276 249.5,-276"/>
<text text-anchor="middle" x="199.5" y="-254.3" font-family="monospace" font-size="14.00" fill="#000000">S1 (generate)</text>
</g>
<!-- S0&#45;&gt;S1 -->
<g id="edge1" class="edge">
<title>S0&#45;&gt;S1</title>
<path fill="none" stroke="#c0c0c0" d="M199.5,-319.9186C199.5,-310.0095 199.5,-297.5041 199.5,-286.3302"/>
<polygon fill="#c0c0c0" stroke="#c0c0c0" points="203.0001,-286.1532 199.5,-276.1532 196.0001,-286.1533 203.0001,-286.1532"/>
<text text-anchor="middle" x="190.5" y="-295.2" font-family="monospace" font-size="11.00" fill="#000000">h &#45; h_start &gt; 0.0</text>
</g>
<!-- S2 -->
<g id="node3" class="node">
<title>S2</title>
<path fill="none" stroke="#000000" d="M233,-196C233,-196 166,-196 166,-196 160,-196 154,-190 154,-184 154,-184 154,-172 154,-172 154,-166 160,-160 166,-160 166,-160 233,-160 233,-160 239,-160 245,-166 245,-172 245,-172 245,-184 245,-184 245,-190 239,-196 233,-196"/>
<text text-anchor="middle" x="199.5" y="-174.3" font-family="monospace" font-size="14.00" fill="#000000">S2 (hold)</text>
</g>
<!-- S1&#45;&gt;S2 -->
<g id="edge2" class="edge">
<title>S1&#45;&gt;S2</title>
<path fill="none" stroke="#c0c0c0" d="M199.5,-239.9186C199.5,-230.0095 199.5,-217.5041 199.5,-206.3302"/>
<polygon fill="#c0c0c0" stroke="#c0c0c0" points="203.0001,-206.1532 199.5,-196.1532 196.0001,-206.1533 203.0001,-206.1532"/>
<text text-anchor="middle" x="190.5" y="-215.2" font-family="monospace" font-size="11.00" fill="#000000">n11 &gt; n11_max</text>
</g>
<!-- S3 -->
<g id="node4" class="node">
<title>S3</title>
<path fill="none" stroke="#000000" d="M233,-116C233,-116 166,-116 166,-116 160,-116 154,-110 154,-104 154,-104 154,-92 154,-92 154,-86 160,-80 166,-80 166,-80 233,-80 233,-80 239,-80 245,-86 245,-92 245,-92 245,-104 245,-104 245,-110 239,-116 233,-116"/>
<text text-anchor="middle" x="199.5" y="-94.3" font-family="monospace" font-size="14.00" fill="#000000">S3 (fill)</text>
</g>
<!-- S2&#45;&gt;S3 -->
<g id="edge3" class="edge">
<title>S2&#45;&gt;S3</title>
<path fill="none" stroke="#c0c0c0" d="M199.5,-159.9186C199.5,-150.0095 199.5,-137.5041 199.5,-126.3302"/>
<polygon fill="#c0c0c0" stroke="#c0c0c0" points="203.0001,-126.1532 199.5,-116.1532 196.0001,-126.1533 203.0001,-126.1532"/>
<text text-anchor="middle" x="190.5" y="-135.2" font-family="monospace" font-size="11.00" fill="#000000">h &lt; 0</text>
</g>
<!-- S4 -->
<g id="node5" class="node">
<title>S4</title>
<polygon fill="none" stroke="#000000" points="245,-36 154,-36 154,0 245,0 245,-36"/>
<text text-anchor="middle" x="199.5" y="-14.3" font-family="monospace" font-size="14.00" fill="#000000">S4 (hold)</text>
</g>
<!-- S3&#45;&gt;S4 -->
<g id="edge4" class="edge">
<title>S3&#45;&gt;S4</title>
<path fill="none" stroke="#c0c0c0" d="M199.5,-79.9186C199.5,-70.0095 199.5,-57.5041 199.5,-46.3302"/>
<polygon fill="#c0c0c0" stroke="#c0c0c0" points="203.0001,-46.1532 199.5,-36.1532 196.0001,-46.1533 203.0001,-46.1532"/>
<text text-anchor="middle" x="190.5" y="-55.2" font-family="monospace" font-size="11.00" fill="#000000">h &gt; 0</text>
</g>
<!-- S4&#45;&gt;S1 -->
<g id="edge5" class="edge">
<title>S4&#45;&gt;S1</title>
<path fill="none" stroke="#c0c0c0" d="M153.9084,-33.654C112.2803,-50.669 53.2799,-82.2817 26.5,-132 -.8733,-182.8199 68.6845,-218.3609 127.61,-238.452"/>
<polygon fill="#c0c0c0" stroke="#c0c0c0" points="126.7406,-241.8507 137.3338,-241.6637 128.9361,-235.2039 126.7406,-241.8507"/>
<text text-anchor="middle" x="62" y="-135.2" font-family="monospace" font-size="11.00" fill="#000000">h &#45; h_start &gt; 0.0</text>
</g>
</g>
</svg>
